HIERARCHY
ROOT Hips
{
  OFFSET 0 0 0
  CHANNELS 6 Xposition Yposition Zposition Zrotation Xrotation Yrotation
  JOINT LeftUpLeg
  {
    OFFSET 4.06525 -3.90732 0.41711
    CHANNELS 3 Zrotation Xrotation Yrotation
    JOINT LeftLeg
    {
      OFFSET 0.00023 -18.4821 0.00367
      CHANNELS 3 Zrotation Xrotation Yrotation
      JOINT LeftFoot
      {
        OFFSET -0.00172 -15.2898 -0.02629
        CHANNELS 3 Zrotation Xrotation Yrotation
        JOINT LeftToeBase
        {
          OFFSET 0.36743 -3.19131 5.54287
          CHANNELS 3 Zrotation Xrotation Yrotation
          JOINT LeftToeBase2
          {
            OFFSET 0.08751 0.04849 1.36758
            CHANNELS 3 Zrotation Xrotation Yrotation
            JOINT LeftToeBase3
            {
              OFFSET 0.07484 0.06785 1.16707
            }
          }
        }
      }
    }
  }
  JOINT RightUpLeg
  {
    OFFSET -4.06526 -3.90731 0.41712
    CHANNELS 3 Zrotation Xrotation Yrotation
    JOINT RightLeg
    {
      OFFSET -0.00029 -18.4821 0.0044
      CHANNELS 3 Zrotation Xrotation Yrotation
      JOINT RightFoot
      {
        OFFSET 0.0016 -15.2898 -0.02569
        CHANNELS 3 Zrotation Xrotation Yrotation
        JOINT RightToeBase
        {
          OFFSET -0.3542 -3.19109 5.54386
          CHANNELS 3 Zrotation Xrotation Yrotation
          JOINT RightToeBase2
          {
            OFFSET -0.08424 0.04854 1.36778
            CHANNELS 3 Zrotation Xrotation Yrotation
            JOINT RightToeBase3
            {
              OFFSET -0.07205 0.0679 1.16725
            }
          }
        }
      }
    }
  }
  JOINT Spine
  {
    OFFSET 1e-005 4.46517 -0.10224
    CHANNELS 3 Zrotation Xrotation Yrotation
    JOINT Spine1
    {
      OFFSET 1e-005 4.46212 -0.1824
      CHANNELS 3 Zrotation Xrotation Yrotation
      JOINT Spine2
      {
        OFFSET 0 4.37937 -0.881
        CHANNELS 3 Zrotation Xrotation Yrotation
        JOINT Spine3
        {
          OFFSET 1e-005 4.68286 0.21414
          CHANNELS 3 Zrotation Xrotation Yrotation
          JOINT Neck
          {
            OFFSET 0 1.76964 0.82454
            CHANNELS 3 Zrotation Xrotation Yrotation
            JOINT Head
            {
              OFFSET 0 1.6961 0.93145
              CHANNELS 3 Zrotation Xrotation Yrotation
              JOINT Head_End
              {
                OFFSET 1e-005 7.8375 1.52603
              }
            }
          }
          JOINT LeftShoulder
          {
            OFFSET 1.19381 -0.75881 -0.02768
            CHANNELS 3 Zrotation Xrotation Yrotation
            JOINT LeftArm
            {
              OFFSET 5.18779 -2e-005 1e-005
              CHANNELS 3 Zrotation Xrotation Yrotation
              JOINT LeftForeArm
              {
                OFFSET 12.7364 -4e-005 2e-005
                CHANNELS 3 Zrotation Xrotation Yrotation
                JOINT LeftHand
                {
                  OFFSET 9.21452 -2e-005 1e-005
                  CHANNELS 3 Zrotation Xrotation Yrotation
                }
              }
            }
          }
          JOINT RightShoulder
          {
            OFFSET -1.19381 -0.75881 -0.02767
            CHANNELS 3 Zrotation Xrotation Yrotation
            JOINT RightArm
            {
              OFFSET -5.18779 1e-005 -1e-005
              CHANNELS 3 Zrotation Xrotation Yrotation
              JOINT RightForeArm
              {
                OFFSET -12.7364 3e-005 -2e-005
                CHANNELS 3 Zrotation Xrotation Yrotation
                JOINT RightHand
                {
                  OFFSET -9.21452 2e-005 -1e-005
                  CHANNELS 3 Zrotation Xrotation Yrotation
                }
              }
            }
          }
        }
      }
    }
  }
}
MOTION
Frames: 7
Frame Time: 	0.0166667
8.92945 41.2641 -0.83971 1.38129 -0.0586272 -7.97615 -5.77419 -4.8722 0.391543  0.223598 16.8188 1.10112  4.03418 -11.4743 5.18936  1.63753e-011 -1.41002e-011 2.03906e-011  -0 0 -0   -14.8777 -6.63855 -11.7119  0.58552 14.3816 0.252563  12.1184 -2.92446 3.20277  -1.23676e-012 -8.63143e-012 1.64896e-011  -0 0 -0   0.472512 0.746076 -0.333225  -0.00735911 2.89147 -0.13133  -0.325151 3.72973 -0.173819  -1.5392 7.04154 -0.315104  -2.90624 -13.7799 -5.32957  7.68948 -6.27419 -6.83943   -9.90522 3.20795 -15.7788  -62.0681 15.9745 -11.3313  -0.0666898 -0.159756 -9.14037  7.69953 -4.43761 -10.1145  6.46157 2.23506 17.9112  65.2737 0.86478 11.8551  0.081794 0.0129292 14.8792  9.6473 31.385 4.43122 
8.95746 41.2611 -0.841697 1.38966 -0.0693396 -8.08541 -5.82875 -4.87973 0.454116  0.223561 16.8384 1.10339  4.08791 -11.4824 5.24362  1.63753e-011 -1.41002e-011 2.03906e-011  -0 0 -0   -15.0728 -6.5252 -11.3927  0.577333 14.1841 0.288602  12.7814 -2.90297 3.6893  -1.23676e-012 -8.63143e-012 1.64896e-011  -0 0 -0   0.401246 0.696622 -0.343603  -0.0210823 2.88219 -0.139661  -0.321966 3.74435 -0.182026  -1.49692 7.09899 -0.328309  -2.94506 -13.8046 -5.3714  7.7595 -6.23332 -6.88989   -9.90209 3.22231 -15.7856  -62.0262 15.998 -11.3659  -0.0667771 -0.159795 -9.15837  7.72284 -4.54987 -9.97491  6.45198 2.22225 17.9155  65.279 0.791717 11.9019  0.0818595 0.0130752 14.8709  9.71766 31.5249 4.40674 
8.98518 41.2557 -0.843985 1.40001 -0.0799911 -8.19275 -5.88588 -4.90082 0.507451  0.22328 16.8865 1.1066  4.13825 -11.5073 5.30446  1.63753e-011 -1.41002e-011 2.03906e-011  -0 0 -0   -15.2773 -6.34315 -11.0444  0.561257 13.859 0.33203  13.5606 -2.88324 4.21082  -1.23676e-012 -8.63143e-012 1.64896e-011  -0 0 -0   0.327854 0.644079 -0.356589  -0.0364745 2.87246 -0.149274  -0.322206 3.76007 -0.191882  -1.4656 7.16044 -0.344414  -2.97566 -13.8356 -5.41358  7.82539 -6.19728 -6.93845   -9.88682 3.22576 -15.7902  -61.9889 16.0045 -11.3944  -0.0668718 -0.159817 -9.18026  7.75336 -4.63998 -9.85174  6.44792 2.20858 17.9275  65.293 0.714972 11.9453  0.0819198 0.0132211 14.8752  9.79031 31.6565 4.36997 
9.01262 41.2483 -0.847013 1.41391 -0.0912437 -8.30012 -5.94733 -4.93636 0.553247  0.222338 16.9646 1.11242  4.18805 -11.5476 5.37235  1.63753e-011 -1.41002e-011 2.03906e-011  -0 0 -0   -15.493 -6.08559 -10.6629  0.539671 13.3881 0.383429  14.4711 -2.8568 4.7594  -1.23676e-012 -8.63143e-012 1.64896e-011  -0 0 -0   0.251704 0.58972 -0.372495  -0.053361 2.86236 -0.160338  -0.325426 3.77624 -0.203563  -1.44379 7.2238 -0.363688  -3.00313 -13.8643 -5.45171  7.8885 -6.17664 -6.98324   -9.86978 3.21504 -15.7919  -61.9555 15.9893 -11.4069  -0.0669651 -0.159825 -9.20284  7.78537 -4.67229 -9.77672  6.44405 2.19711 17.9609  65.316 0.628806 11.9777  0.081974 0.0133663 14.8962  9.86946 31.7772 4.31867 
9.03949 41.2404 -0.850453 1.42836 -0.102252 -8.40547 -6.00934 -4.98027 0.593679  0.223233 17.0585 1.11891  4.2379 -11.5947 5.443  1.63753e-011 -1.41002e-011 2.03906e-011  -0 0 -0   -15.71 -5.78667 -10.2664  0.515611 12.8275 0.437154  15.4234 -2.80285 5.31995  -1.23676e-012 -8.63143e-012 1.64896e-011  -0 0 -0   0.17593 0.536997 -0.387493  -0.0709474 2.85221 -0.170714  -0.331054 3.79108 -0.214827  -1.42979 7.28313 -0.382187  -3.02886 -13.8912 -5.48958  7.94178 -6.16932 -7.02663   -9.85645 3.19645 -15.7941  -61.918 15.9653 -11.4107  -0.0670397 -0.159818 -9.21997  7.82799 -4.66617 -9.74306  6.43907 2.18664 17.995  65.3499 0.544533 12.0034  0.0820241 0.0135114 14.9244  9.95763 31.8914 4.25758 
9.0656 41.2325 -0.854155 1.44166 -0.112351 -8.50767 -6.06997 -5.02761 0.630514  0.224229 17.1558 1.1255  4.28955 -11.6389 5.51303  1.63753e-011 -1.41002e-011 2.03906e-011  -0 0 -0   -15.9198 -5.47177 -9.86964  0.490928 12.2144 0.489725  16.3533 -2.6961 5.876  -1.23676e-012 -8.63143e-012 1.64896e-011  -0 0 -0   0.102027 0.489702 -0.397668  -0.0883384 2.84231 -0.178257  -0.337763 3.80259 -0.223341  -1.41886 7.33191 -0.395819  -3.06098 -13.9139 -5.52978  7.98287 -6.17817 -7.07194   -9.86051 3.17376 -15.8004  -61.8668 15.9437 -11.4118  -0.0670699 -0.159802 -9.22249  7.88694 -4.61896 -9.76311  6.42702 2.17742 18.0131  65.3968 0.468898 12.0238  0.0820713 0.0136565 14.9543  10.0626 32.0034 4.18652 
9.09041 41.2243 -0.85821 1.45137 -0.121626 -8.6059 -6.12498 -5.08195 0.666346  0.225621 17.2665 1.13275  4.3414 -11.6875 5.58024  1.63753e-011 -1.41002e-011 2.03906e-011  -0 0 -0   -16.1158 -5.17447 -9.47898  0.467609 11.6189 0.538943  17.1953 -2.55516 6.42506  -1.23676e-012 -8.63143e-012 1.64896e-011  -0 0 -0   0.0361769 0.447901 -0.400628  -0.105068 2.8327 -0.183125  -0.346818 3.81063 -0.229492  -1.41822 7.36973 -0.405173  -3.08421 -13.9341 -5.57143  7.99901 -6.19913 -7.11453   -9.86782 3.15143 -15.8113  -61.8062 15.9239 -11.4121  -0.0670718 -0.159774 -9.21624  7.96678 -4.56173 -9.81151  6.41657 2.16818 18.0157  65.4554 0.409993 12.0394  0.0821172 0.0138017 14.979  10.1727 32.1106 4.11815 
